<?xml version="1.0" encoding="UTF-8"?>
<svg class="vKlWpc" width="75px" height="32px" fill="none" aria-label="Chat logo" version="1.1" viewBox="0 0 75 32" xmlns="http://www.w3.org/2000/svg" xmlns:cc="http://creativecommons.org/ns#" xmlns:dc="http://purl.org/dc/elements/1.1/" xmlns:rdf="http://www.w3.org/1999/02/22-rdf-syntax-ns#" xmlns:xlink="http://www.w3.org/1999/xlink">
 <metadata>
  <rdf:RDF>
   <cc:Work rdf:about="">
    <dc:format>image/svg+xml</dc:format>
    <dc:type rdf:resource="http://purl.org/dc/dcmitype/StillImage"/>
    <dc:title/>
   </cc:Work>
  </rdf:RDF>
 </metadata>
 <defs>
  <path id="b" d="m25.333 12.667c0-7-5.6833-12.667-12.667-12.667-6.9833 0-12.667 5.6667-12.667 12.667 0 6.6333 6.05 12 12.667 12v4.6667c7.7-3.9 12.667-10.183 12.667-16.667z"/>
  <linearGradient id="d" x1="10.131%" x2="86.471%" y1="8.1952%" y2="78%">
   <stop stop-color="#263238" stop-opacity=".2" offset="0"/>
   <stop stop-color="#263238" stop-opacity=".02" offset="1"/>
  </linearGradient>
  <radialGradient id="a" cx="14.474%" cy="12.5%" r="101.79%">
   <stop stop-color="#fff" stop-opacity=".1" offset="0"/>
   <stop stop-color="#fff" stop-opacity="0" offset="1"/>
  </radialGradient>
 </defs>
 <g fill="none" fill-rule="evenodd">
  <g id="logo_lockup_chat_icon_horizontal_webapp-copy">
   <g id="logo_lockup_chat_icon_horizontal">
    <g id="logo_x5F_lockup_x5F_chat_x5F_icon_x5F_horizontal">
     <g id="XMLID_1_">
      <g id="XMLID_8_-Clipped" class="nHjhsd" transform="translate(33.333 8.3333)" fill="#000" opacity=".54">
       <g id="XMLID_8_">
        <g id="XMLID_72_-Clipped">
         <g id="XMLID_72_">
          <path id="XMLID_73_" d="m7.9333 16c-2.25 0-4.1333-0.76667-5.65-2.2833-1.5167-1.5167-2.2833-3.4167-2.2833-5.7s0.76667-4.1667 2.2833-5.7c1.5167-1.5167 3.4-2.2833 5.65-2.2833 2.3 0 4.1667 0.83333 5.6167 2.5l-1.3667 1.3167c-1.0333-1.3-2.45-1.9333-4.25-1.9333-1.6667 0-3.0667 0.56667-4.2167 1.6833s-1.7167 2.6-1.7167 4.4167 0.56667 3.3 1.7167 4.4167c1.15 1.1167 2.55 1.6833 4.2167 1.6833 1.8333 0 3.4-0.73333 4.7-2.2167l1.3667 1.3667c-0.7 0.83333-1.5667 1.5-2.6167 2-1.0667 0.5-2.2167 0.73333-3.45 0.73333z"/>
          <path id="XMLID_75_" d="m16.817 0.4v4.8167l-0.083333 1.45h0.083333c0.28333-0.5 0.73333-0.91667 1.35-1.2667 0.61667-0.35 1.2667-0.51667 1.9667-0.51667 1.3 0 2.2833 0.4 2.9667 1.2s1.0167 1.8667 1.0167 3.2v6.3833h-1.9667v-6.1c0-1.9333-0.86667-2.9-2.5833-2.9-0.81667 0-1.4667 0.31667-1.9833 0.96667-0.51667 0.65-0.76667 1.4-0.76667 2.25v5.7833h-1.9667v-15.267h1.9667z"/>
          <path id="XMLID_77_" d="m29.183 16c-1.1167 0-2.0333-0.31667-2.7833-0.96667s-1.1167-1.4833-1.1167-2.5333c0-1.1333 0.43333-2.0333 1.3167-2.6833 0.88333-0.65 1.9667-0.96667 3.2667-0.96667 1.15 0 2.1 0.21667 2.8333 0.63333v-0.3c0-0.76667-0.26667-1.3833-0.78333-1.85-0.53333-0.46667-1.1667-0.7-1.9333-0.7-0.56667 0-1.0833 0.13333-1.55 0.4-0.46667 0.26667-0.78333 0.63333-0.95 1.1167l-1.8-0.76667c0.23333-0.63333 0.71667-1.2 1.4333-1.7333 0.71667-0.53333 1.65-0.8 2.8167-0.8 1.3333 0 2.45 0.38333 3.3333 1.1667 0.88333 0.78333 1.3167 1.8833 1.3167 3.3v6.35h-1.8833v-1.45h-0.083333c-0.78333 1.2-1.9333 1.7833-3.4333 1.7833zm0.31667-1.7833c0.81667 0 1.55-0.3 2.2-0.9 0.66667-0.6 1-1.3167 1-2.15-0.55-0.45-1.3833-0.68333-2.5-0.68333-0.95 0-1.6667 0.2-2.15 0.61667s-0.73333 0.9-0.73333 1.45c0 0.51667 0.21667 0.91667 0.66667 1.2167s0.95 0.45 1.5167 0.45z"/>
          <path id="XMLID_80_" d="m40.067 15.833c-1.1 0-1.9333-0.28333-2.5-0.86667-0.58333-0.58333-0.86667-1.4-0.86667-2.4667v-5.5h-1.8333v-1.8h1.8333v-3.2h1.9667v3.2h2.5667v1.8h-2.5667v5.3333c0 1.1333 0.46667 1.7 1.4 1.7 0.35 0 0.65-0.05 0.9-0.16667l0.68333 1.6833c-0.43333 0.2-0.96667 0.28333-1.5833 0.28333z"/>
         </g>
        </g>
       </g>
      </g>
      <g id="XMLID_53_-Clipped">
       <g id="XMLID_53_">
        <rect id="XMLID_108_" width="25.333" height="32"/>
        <g id="XMLID_21_" transform="translate(0 1.3333)">
         <path id="_x3C_Path_x3E__2_" d="m25.333 12.667c0-7-5.6667-12.667-12.667-12.667-7 0-12.667 5.6667-12.667 12.667 0 6.6333 6.05 12 12.667 12v4.6667c7.7-3.9 12.667-10.183 12.667-16.667z" fill="#00897B"/>
         <path id="_x3C_Path_x3E__1_" d="m12.667 0.16667c6.9667 0 12.617 5.6333 12.667 12.583v-0.083333c0-7-5.6667-12.667-12.667-12.667-7 0-12.667 5.6667-12.667 12.667v0.083333c0.05-6.9667 5.7-12.583 12.667-12.583z" fill="#fff" opacity=".2"/>
         <g id="_x3C_Group_x3E__1_" transform="translate(0 12.5)" fill="#263238" opacity=".2">
          <path id="XMLID_107_" d="m12.667 16.667v0.16667c7.7-3.9 12.667-10.183 12.667-16.667v-0.083333c-0.05 6.45-5 12.7-12.667 16.583z"/>
          <path id="XMLID_106_" d="m12.667 12c-6.6 0-12.617-5.3333-12.667-11.917v0.083333c0 6.6333 6.05 12 12.667 12v-0.16667z"/>
         </g>
         <g id="XMLID_24_">
          <g id="XMLID_105_-Clipped">
           <mask id="c" fill="white">
            <use xlink:href="#b"/>
           </mask>
           <path id="XMLID_105_" d="m18.083 7.4167c0.21667 0.23333 0.41667 0.46667 0.6 0.73333l-4.2167-2h-3.5333l-2.9 1.75-1.6667 2.1833-0.13333 3.55 1.2333 3.8167 13.233 13.233h7.9667v-12.667l-10.583-10.6z" fill="url(#d)" mask="url(#c)"/>
          </g>
         </g>
         <g id="_x3C_Group_x3E_" transform="translate(3.8333 3.6667)">
          <g id="XMLID_112_" transform="translate(1.5 1.5)" fill="#F5F5F5">
           <g id="XMLID_128_">
            <path id="XMLID_129_" d="m7.3667 0c1.0667 0 2.0333 0.18333 2.9333 0.56667 0.9 0.38333 1.6667 0.88333 2.3167 1.5333s1.15 1.4 1.5167 2.2667c0.36667 0.86667 0.55 1.7833 0.55 2.75 0 0.55-0.066667 1.05-0.18333 1.5167-0.11667 0.46667-0.3 0.88333-0.55 1.2333-0.25 0.35-0.55 0.63333-0.91667 0.83333s-0.78333 0.3-1.2667 0.3c-0.46667 0-0.9-0.11667-1.2667-0.35s-0.66667-0.56667-0.88333-1.0167c-0.28333 0.43333-0.65 0.76667-1.0833 1.0167-0.43333 0.23333-0.93333 0.35-1.5167 0.35-0.51667 0-0.98333-0.1-1.4167-0.28333-0.43333-0.18333-0.81667-0.45-1.15-0.78333s-0.58333-0.73333-0.78333-1.2c-0.18333-0.46667-0.28333-0.96667-0.28333-1.5333 0-0.55 0.1-1.0667 0.28333-1.5333 0.2-0.46667 0.45-0.86667 0.78333-1.2 0.31667-0.33333 0.7-0.6 1.1333-0.78333 0.43333-0.18333 0.88333-0.28333 1.35-0.28333s0.9 0.1 1.2667 0.28333c0.36667 0.18333 0.68333 0.43333 0.93333 0.73333h0.11667v-0.75h1.5833v4.6833c0 0.3 0.083333 0.56667 0.25 0.81667 0.16667 0.25 0.43333 0.38333 0.78333 0.38333 0.23333 0 0.43333-0.066667 0.6-0.21667 0.16667-0.15 0.28333-0.35 0.38333-0.58333s0.16667-0.51667 0.2-0.8c0.033333-0.3 0.05-0.6 0.05-0.88333 0-0.75-0.15-1.4667-0.43333-2.15-0.3-0.68333-0.7-1.2667-1.2-1.7833-0.51667-0.51667-1.1167-0.91667-1.8167-1.2167s-1.45-0.45-2.2833-0.45c-0.8 0-1.55 0.15-2.25 0.43333s-1.3 0.68333-1.8167 1.1833-0.91667 1.1-1.2167 1.7833c-0.3 0.7-0.45 1.45-0.45 2.2667 0 0.81667 0.15 1.5667 0.45 2.2667s0.71667 1.2833 1.25 1.7833c0.51667 0.5 1.1333 0.9 1.8167 1.1833 0.68333 0.28333 1.4167 0.43333 2.2 0.43333 0.91667 0 1.7167-0.2 2.4333-0.58333l0.58333 1.4667c-0.91667 0.41667-1.9167 0.63333-3 0.63333-1.0667 0-2.0333-0.18333-2.95-0.56667-0.9-0.38333-1.6833-0.88333-2.3333-1.5333s-1.1667-1.4-1.5333-2.2667c-0.36667-0.86667-0.55-1.8-0.55-2.7833 0-0.98333 0.18333-1.9 0.55-2.7833 0.36667-0.86667 0.88333-1.6333 1.5333-2.2833s1.4333-1.1667 2.3333-1.5333c0.88333-0.38333 1.8667-0.56667 2.95-0.56667zm-0.23333 9.4c0.26667 0 0.53333-0.05 0.78333-0.15s0.46667-0.23333 0.66667-0.41667c0.2-0.18333 0.35-0.4 0.45-0.66667 0.11667-0.26667 0.16667-0.56667 0.16667-0.91667s-0.05-0.65-0.16667-0.91667-0.26667-0.48333-0.45-0.66667c-0.2-0.18333-0.41667-0.31667-0.66667-0.41667s-0.51667-0.15-0.78333-0.15c-0.26667 0-0.53333 0.05-0.78333 0.15s-0.46667 0.23333-0.66667 0.41667c-0.2 0.18333-0.35 0.41667-0.45 0.68333-0.11667 0.26667-0.16667 0.56667-0.16667 0.9s0.05 0.63333 0.16667 0.9 0.26667 0.5 0.45 0.68333c0.2 0.18333 0.41667 0.33333 0.66667 0.41667 0.25 0.1 0.51667 0.15 0.78333 0.15z"/>
           </g>
          </g>
         </g>
         <g id="XMLID_26_" transform="translate(5.1667 5.1667)" opacity=".2">
          <path id="XMLID_102_" d="m9.95 12.233c-0.71667 0.38333-1.5167 0.58333-2.4333 0.58333-0.76667 0-1.5-0.15-2.2-0.43333s-1.3-0.68333-1.8167-1.1833-0.93333-1.1-1.25-1.7833c-0.3-0.66667-0.45-1.4-0.45-2.1833v0.083333c0 0.81667 0.15 1.5667 0.45 2.2667s0.71667 1.2833 1.25 1.7833c0.51667 0.5 1.1333 0.9 1.8167 1.1833 0.68333 0.28333 1.4167 0.43333 2.2 0.43333 0.91667 0 1.7167-0.2 2.4333-0.58333l0.51667 1.3167c0.016667-0.016667 0.033333-0.016667 0.05-0.016667l-0.56667-1.4667z" fill="#fff"/>
          <path id="XMLID_101_" d="m14.283 4.3667c-0.36667-0.86667-0.86667-1.6167-1.5167-2.2667s-1.4167-1.1667-2.3167-1.5333c-0.9-0.38333-1.8667-0.56667-2.9333-0.56667-1.0667 0-2.05 0.18333-2.95 0.56667-0.9 0.38333-1.6667 0.88333-2.3333 1.5333-0.65 0.65-1.1667 1.4167-1.5333 2.2833-0.36667 0.86667-0.55 1.8-0.55 2.7833v0.083333c0.016667-0.95 0.2-1.85 0.55-2.7 0.36667-0.86667 0.88333-1.6333 1.5333-2.2833s1.4333-1.1667 2.3333-1.5333c0.9-0.38333 1.8833-0.56667 2.95-0.56667s2.0333 0.18333 2.9333 0.56667c0.9 0.38333 1.6667 0.88333 2.3167 1.5333s1.15 1.4 1.5167 2.2667c0.35 0.83333 0.53333 1.7167 0.53333 2.6667v-0.066667c0.016667-0.98333-0.16667-1.9-0.53333-2.7667z" fill="#fff"/>
          <rect id="XMLID_97_" x="9.4167" y="3.7167" width="1.5833" height=".5" fill="#fff"/>
          <path id="XMLID_51_" d="m4.6167 4.6833c0.31667-0.33333 0.7-0.6 1.1333-0.78333s0.88333-0.28333 1.35-0.28333 0.9 0.1 1.2667 0.28333c0.36667 0.18333 0.68333 0.43333 0.93333 0.73333h0.11667v-0.16667h-0.11667c-0.25-0.3-0.56667-0.55-0.93333-0.73333-0.36667-0.18333-0.8-0.28333-1.2667-0.28333s-0.91667 0.1-1.35 0.28333-0.8 0.45-1.1333 0.78333c-0.31667 0.33333-0.58333 0.73333-0.78333 1.2s-0.28333 0.96667-0.28333 1.5333v0.083333c0.016667-0.51667 0.1-1 0.28333-1.45 0.2-0.46667 0.45-0.86667 0.78333-1.2z" fill="#fff"/>
          <path id="XMLID_45_" d="m8.75 8.8167c-0.2 0.18333-0.41667 0.33333-0.66667 0.41667-0.25 0.1-0.51667 0.15-0.78333 0.15s-0.53333-0.05-0.78333-0.15-0.46667-0.23333-0.66667-0.41667c-0.2-0.18333-0.35-0.41667-0.45-0.68333-0.1-0.25-0.15-0.51667-0.16667-0.81667v0.083333c0 0.33333 0.05 0.63333 0.16667 0.9s0.26667 0.5 0.45 0.68333c0.2 0.18333 0.41667 0.33333 0.66667 0.41667 0.25 0.1 0.51667 0.15 0.78333 0.15s0.53333-0.05 0.78333-0.15 0.46667-0.23333 0.66667-0.41667c0.2-0.18333 0.35-0.4 0.45-0.66667 0.11667-0.26667 0.16667-0.56667 0.16667-0.91667v-0.083333c-0.016667 0.31667-0.066667 0.58333-0.16667 0.83333-0.1 0.26667-0.25 0.48333-0.45 0.66667z" fill="#fff"/>
          <path id="XMLID_44_" d="m13.017 8.8c-0.1 0.23333-0.21667 0.43333-0.38333 0.58333-0.16667 0.15-0.36667 0.21667-0.6 0.21667-0.35 0-0.6-0.13333-0.78333-0.38333-0.16667-0.25-0.25-0.53333-0.25-0.81667v0.16667c0 0.3 0.083333 0.56667 0.25 0.81667s0.43333 0.38333 0.78333 0.38333c0.23333 0 0.43333-0.066667 0.6-0.21667 0.16667-0.15 0.28333-0.35 0.38333-0.58333s0.16667-0.51667 0.2-0.8c0.033333-0.3 0.05-0.6 0.05-0.88333v-0.1c0 0.26667-0.016667 0.55-0.05 0.81667-0.05 0.28333-0.11667 0.55-0.2 0.8z" fill="#fff"/>
          <path id="XMLID_43_" d="m14.65 8.65c-0.11667 0.46667-0.3 0.88333-0.55 1.2333-0.25 0.35-0.55 0.63333-0.91667 0.83333s-0.78333 0.3-1.2667 0.3c-0.46667 0-0.9-0.11667-1.2667-0.35-0.36667-0.23333-0.66667-0.56667-0.88333-1.0167-0.28333 0.43333-0.65 0.76667-1.0833 1.0167-0.43333 0.23333-0.93333 0.35-1.5167 0.35-0.51667 0-0.98333-0.1-1.4167-0.28333-0.43333-0.18333-0.81667-0.45-1.15-0.78333s-0.58333-0.73333-0.78333-1.2c-0.18333-0.43333-0.26667-0.91667-0.28333-1.45v0.083333c0 0.55 0.1 1.0667 0.28333 1.5333 0.18333 0.46667 0.45 0.86667 0.78333 1.2s0.71667 0.6 1.15 0.78333 0.91667 0.28333 1.4167 0.28333c0.56667 0 1.0833-0.11667 1.5167-0.35 0.43333-0.23333 0.8-0.56667 1.0833-1.0167 0.21667 0.43333 0.5 0.76667 0.88333 1.0167 0.36667 0.23333 0.8 0.35 1.2667 0.35 0.46667 0 0.9-0.1 1.2667-0.3 0.36667-0.2 0.66667-0.48333 0.91667-0.83333s0.43333-0.76667 0.55-1.2333c0.11667-0.46667 0.18333-0.98333 0.18333-1.5167v-0.1c0 0.51667-0.066667 1-0.18333 1.45z" fill="#263238"/>
          <path id="XMLID_42_" d="m3.4667 3.2833c0.51667-0.5 1.1167-0.9 1.8167-1.1833s1.45-0.43333 2.25-0.43333c0.81667 0 1.5833 0.15 2.2833 0.45s1.3 0.7 1.8167 1.2167c0.51667 0.51667 0.91667 1.1 1.2 1.7833 0.28333 0.65 0.41667 1.3333 0.43333 2.05v-0.066667c0-0.75-0.15-1.4667-0.43333-2.15-0.3-0.68333-0.7-1.2667-1.2-1.7833-0.51667-0.51667-1.1167-0.91667-1.8167-1.2167-0.7-0.3-1.45-0.45-2.2833-0.45-0.8 0-1.55 0.15-2.25 0.43333s-1.3 0.68333-1.8167 1.1833c-0.51667 0.5-0.91667 1.1-1.2167 1.7833-0.3 0.7-0.45 1.45-0.45 2.2667v0.083333c0.016667-0.78333 0.15-1.5167 0.45-2.1833 0.3-0.68333 0.71667-1.2833 1.2167-1.7833z" fill="#263238"/>
          <path id="XMLID_32_" d="m9.2167 6.3333c-0.11667-0.26667-0.26667-0.48333-0.45-0.66667-0.2-0.18333-0.41667-0.31667-0.66667-0.41667s-0.51667-0.15-0.78333-0.15c-0.26667 0-0.53333 0.05-0.78333 0.15s-0.46667 0.23333-0.66667 0.41667c-0.2 0.18333-0.35 0.41667-0.45 0.68333-0.11667 0.26667-0.16667 0.56667-0.16667 0.9v0.083333c0.016667-0.3 0.066667-0.56667 0.16667-0.81667 0.11667-0.26667 0.26667-0.5 0.45-0.68333 0.2-0.18333 0.41667-0.31667 0.66667-0.41667s0.51667-0.15 0.78333-0.15c0.26667 0 0.53333 0.05 0.78333 0.15s0.46667 0.23333 0.66667 0.41667c0.2 0.18333 0.35 0.4 0.45 0.66667 0.1 0.25 0.15 0.51667 0.16667 0.83333v-0.083333c0-0.35-0.066667-0.65-0.16667-0.91667z" fill="#263238"/>
          <path id="XMLID_31_" d="m7.5333 14.5c1.1 0 2.1-0.21667 3-0.63333l-0.05-0.15c-0.9 0.4-1.8833 0.61667-2.95 0.61667s-2.0333-0.18333-2.95-0.56667c-0.88333-0.36667-1.65-0.86667-2.3-1.5l0.91667 0.91667c0.41667 0.28333 0.88333 0.53333 1.3667 0.75 0.91667 0.38333 1.9 0.56667 2.9667 0.56667z" fill="#263238"/>
         </g>
         <path id="_x3C_Path_x3E_" d="m25.333 12.667c0-7-5.6833-12.667-12.667-12.667-6.9833 0-12.667 5.6667-12.667 12.667 0 6.6333 6.05 12 12.667 12v4.6667c7.7-3.9 12.667-10.183 12.667-16.667z" fill="url(#a)"/>
        </g>
       </g>
      </g>
     </g>
    </g>
   </g>
  </g>
 </g>
</svg>
